<svg xmlns="http://www.w3.org/2000/svg" width="750" height="500" viewBox="0 0 750 500" style="width:100%;height:100%"><defs><clipPath id="a"><path d="M0 0h750v500H0z"/></clipPath></defs><g clip-path="url(#a)"><g style="user-select:none"><path stroke-linecap="round" stroke-linejoin="round" stroke="#000" stroke-width="7.917" d="M174.176 493s-2.653-85.342 16.7-125.588m18.972 28.884c-32.104-49.179-43.198-111.598-30.005-168.827 13.192-57.229 54.752-110.005 109.093-132.279m25.962-8.291c19.14-8.784 37.791-11.864 58.838-9.663 18.76 1.961 33.266 10.128 52.34 6.841 35.89-6.186 53.075-47.066 82.275-64.558 27.868-16.694 38.109 21.072 39.309 41.936 2.205 38.395-20.509 87.272-24.672 124.536" fill="none"/><path stroke-linecap="round" stroke-linejoin="round" stroke="#000" stroke-width="7.917" d="M528.771 156.891c40.082 111.194 61.228 197.977 58.891 318.106.021-2.289-.687-25.055 0 0l.065-6.868" fill="none"/><path d="M232.072 229.102c7.959-3.772 17.004-5.179 25.972-3.021 14.008 3.37 23.931 13.873 17.717 26.805-6.647 13.832-26.154 20.918-39.256 14.179-6.749-3.471-12.825-9.843-14.303-17.497-1.261-6.53-.805-15.424 9.909-20.483"/><path stroke-linecap="round" stroke-linejoin="round" stroke="#000" stroke-width="7.917" d="M232.072 229.102c7.959-3.772 17.004-5.179 25.972-3.021 14.008 3.37 23.931 13.873 17.717 26.805-6.647 13.832-26.154 20.918-39.256 14.179-6.749-3.471-12.825-9.843-14.303-17.497-1.261-6.53-.805-15.424 9.909-20.483m12.358 69.388s-6.636-15.294-1.332-27.5" fill="none"/><path stroke-linecap="round" stroke-linejoin="round" stroke="#000" stroke-width="7.917" d="M339.731 300.059a86.6 86.6 0 0 1-23.392 16.266c-7.143 3.383-15.581 6.781-23.559 4.495-7.87-2.255-13.136-9.324-19.609-13.87-12.943-9.088-25.767-10.877-39.49-5.545-14.614 5.677-22.575-2.742-25.357-7.546-14.374-24.818.111-53.554 23.786-64.776m-9.401 92.147c10.955 13.005 26.093 22.429 42.599 26.518 16.505 4.088 34.293 2.82 50.051-3.568m157.254-235.453c7.64-22.622 22.81-42.629 42.532-56.088m-21.266 176.264c8.778 4.38 15.915 11.962 19.754 20.991m-18.219 7.654c7.292 3.975 12.786 11.117 14.757 19.186m-17.145 8.935c5.384 6.301 8.589 14.429 8.958 22.709M225.586 406.19a53.898 53.898 0 0 0 11.49 23.942m11.942-16.263a80.697 80.697 0 0 0 15.595 21.058m16.119-12.279c3.688 7.081 10.771 12.294 18.627 13.712m12.079-14.554a53.991 53.991 0 0 0 20.388 10.347m7.654-16.315c7.859 5.648 18.084 7.888 27.584 6.038m13.07-14.328a45.143 45.143 0 0 0 22.039 1.289m19.274-14.532a68.922 68.922 0 0 0 23.418-4.674m47.863-291.467a69.615 69.615 0 0 1 17.298 2.097m-19.417 11.095c5.081 1.324 9.669 4.464 12.742 8.722" fill="none"/><path stroke-linecap="round" stroke-linejoin="round" stroke="#000" stroke-width="7.917" d="M275.684 284.087c.237 1.051 1.908 1.36 2.504.462.596-.898-.337-2.32-1.398-2.129m20.476 20.205c-.03.519.391 1.023.906 1.086.515.063 1.046-.323 1.142-.833-.256-.489-.95-.686-1.424-.403-.475.282-.634.985-.327 1.444m10.861-21.304c-.241.419.134 1.039.618 1.019.483-.021.805-.67.529-1.068l-1.21.128m-80.951 6.746c.26.126.606-.166.526-.443-.405-.07-.811-.138-1.216-.207m-11.437-14.068c.499-.086.771.786.311.999-.459.213-.95-.557-.563-.883.218.078.437.155.655.234" fill="none"/></g><path stroke-linecap="round" stroke-linejoin="round" stroke="#000" stroke-width="7.917" d="M257.814 108.666c-.714-19.115.162-38.386 3.559-57.23 2.19-12.151 5.381-37.786 18.608-43.898 25.812-11.93 46.646 57.481 51.681 72.81M180.347 289.131c-4.235-.019-8.462.613-12.537 1.756m15.467-26.756c-6.849-1.919-14.018-2.64-21.114-2.206m5.095-30.773c7.967 1.428 15.523 5.242 21.262 10.972m170.383 63.747c8.8.753 17.134 4.36 24.444 9.19m-42.819-35.094c14.942-2.751 30.843.062 43.934 7.773m-53.891-27.957c15.32-6.436 33.541-1.918 33.541-1.918" fill="none" style="user-select:none"/><g style="user-select:none"><path d="M415.694 192.354c0 8.402-6.812 15.214-15.214 15.214-8.402 0-15.214-6.812-15.214-15.214 0-8.402 6.812-15.214 15.214-15.214 8.402 0 15.214 6.812 15.214 15.214z"/><path stroke-linecap="round" stroke-linejoin="round" stroke="#000" stroke-width="7.917" d="M415.694 192.354c0 8.402-6.812 15.214-15.214 15.214-8.402 0-15.214-6.812-15.214-15.214 0-8.402 6.812-15.214 15.214-15.214 8.402 0 15.214 6.812 15.214 15.214z" fill="none"/></g><g style="user-select:none"><path d="M281.096 173.756c0 5.971-4.84 10.811-10.812 10.811-5.97 0-10.811-4.84-10.811-10.811s4.841-10.811 10.811-10.811c5.972 0 10.812 4.84 10.812 10.811z"/><path stroke-linecap="round" stroke-linejoin="round" stroke="#000" stroke-width="7.917" d="M281.096 173.756c0 5.971-4.84 10.811-10.812 10.811-5.97 0-10.811-4.84-10.811-10.811s4.841-10.811 10.811-10.811c5.972 0 10.812 4.84 10.812 10.811z" fill="none"/></g><path stroke-linecap="round" stroke-linejoin="round" stroke="#000" stroke-width="7.917" d="M386.643 210.489c11.491.225 23.126-4.591 31.925-11.984-.473-12.603-10.445-24.221-22.829-26.598-12.386-2.377-25.95 4.723-31.055 16.255-1.403 3.169-2.218 6.673-1.797 10.114.42 3.44 2.189 6.801 5.103 8.678m-123.188-44.729c4.803-3.731 11.058-5.54 17.111-4.948 6.054.591 11.841 3.576 15.831 8.166 0 0 3.321 3.432 3.322 8.956 0 7.976-10.109 12.872-12.751 13.951-6.557 2.679-14.459 2.238-20.401-1.689m4.491-50.084c1.127-4.635 5.2-8.41 9.907-9.183 4.706-.773 9.772 1.503 12.322 5.534m99.382 7.357c7.959-7.696 20.129-10.735 30.771-7.682 10.643 3.053 19.352 12.08 22.021 22.825" fill="none" style="user-select:none"/></g></svg>