<?xml version="1.0" encoding="UTF-8" standalone="no"?><!-- Generator: Gravit.io --><svg xmlns="http://www.w3.org/2000/svg" xmlns:xlink="http://www.w3.org/1999/xlink" style="isolation:isolate" viewBox="298 126 1058 500" width="1058pt" height="500pt"><defs><clipPath id="_clipPath_eIleuh8AhovqtUK8baGusiefGAjPVZO5"><rect x="298" y="126" width="1058" height="500"/></clipPath></defs><g clip-path="url(#_clipPath_eIleuh8AhovqtUK8baGusiefGAjPVZO5)"><clipPath id="_clipPath_YesLhZ31G44pAYkdmD0qeuOXhPsE6byH"><path d=" M 329 126 L 1079 126 L 1079 626 L 329 626 L 329 126 Z " fill="rgb(255,255,255)"/></clipPath><g clip-path="url(#_clipPath_YesLhZ31G44pAYkdmD0qeuOXhPsE6byH)"><g><g><path d=" M 503.176 619 C 503.176 619 500.523 533.658 519.876 493.412 M 538.848 522.296 C 506.744 473.117 495.65 410.698 508.843 353.469 C 522.035 296.24 563.595 243.464 617.936 221.19 M 643.898 212.899 C 663.038 204.115 681.689 201.035 702.736 203.236 C 721.496 205.197 736.002 213.364 755.076 210.077 C 790.966 203.891 808.151 163.011 837.351 145.519 C 865.219 128.825 875.46 166.591 876.66 187.455 C 878.865 225.85 856.151 274.727 851.988 311.991" fill="none" vector-effect="non-scaling-stroke" stroke-width="7.917" stroke="rgb(0,0,0)" stroke-linejoin="round" stroke-linecap="round" stroke-miterlimit="4"/><mask id="_mask_KMUlKbWzxrcq7aZJ9yKEff659kJl4R5q" x="-200%" y="-200%" width="400%" height="400%"><rect x="-200%" y="-200%" width="400%" height="400%" style="fill:white;"/><path d=" M 857.771 282.891 C 897.853 394.085 918.999 480.868 916.662 600.997 C 916.683 598.708 915.975 575.942 916.662 600.997 L 916.727 594.129" fill="black" stroke="none"/></mask><path d=" M 857.771 282.891 C 897.853 394.085 918.999 480.868 916.662 600.997 C 916.683 598.708 915.975 575.942 916.662 600.997 L 916.727 594.129" fill="none" mask="url(#_mask_KMUlKbWzxrcq7aZJ9yKEff659kJl4R5q)" vector-effect="non-scaling-stroke" stroke-width="15.834" stroke="rgb(0,0,0)" stroke-linejoin="round" stroke-linecap="round" stroke-miterlimit="4"/><path d=" M 857.771 282.891 C 897.853 394.085 918.999 480.868 916.662 600.997 C 916.683 598.708 915.975 575.942 916.662 600.997 L 916.727 594.129" fill="none"/><path d=" M 561.072 355.102 C 569.031 351.33 578.076 349.923 587.044 352.081 C 601.052 355.451 610.975 365.954 604.761 378.886 C 598.114 392.718 578.607 399.804 565.505 393.065 C 558.756 389.594 552.68 383.222 551.202 375.568 C 549.941 369.038 550.397 360.144 561.111 355.085" fill="rgb(0,0,0)"/><path d=" M 561.072 355.102 C 569.031 351.33 578.076 349.923 587.044 352.081 C 601.052 355.451 610.975 365.954 604.761 378.886 C 598.114 392.718 578.607 399.804 565.505 393.065 C 558.756 389.594 552.68 383.222 551.202 375.568 C 549.941 369.038 550.397 360.144 561.111 355.085 M 573.469 424.473 C 573.469 424.473 566.833 409.179 572.137 396.973" fill="none" vector-effect="non-scaling-stroke" stroke-width="7.917" stroke="rgb(0,0,0)" stroke-linejoin="round" stroke-linecap="round" stroke-miterlimit="4"/><path d=" M 668.731 426.059 C 661.885 432.735 653.981 438.232 645.339 442.325 C 638.196 445.708 629.758 449.106 621.78 446.82 C 613.91 444.565 608.644 437.496 602.171 432.95 C 589.228 423.862 576.404 422.073 562.681 427.405 C 548.067 433.082 540.106 424.663 537.324 419.859 C 522.95 395.041 537.435 366.305 561.11 355.083 M 551.709 447.23 C 562.664 460.235 577.802 469.659 594.308 473.748 C 610.813 477.836 628.601 476.568 644.359 470.18 M 801.613 234.727 C 809.253 212.105 824.423 192.098 844.145 178.639 M 822.879 354.903 C 831.657 359.283 838.794 366.865 842.633 375.894 M 824.414 383.548 C 831.706 387.523 837.2 394.665 839.171 402.734 M 822.026 411.669 C 827.41 417.97 830.615 426.098 830.984 434.378 M 554.586 532.19 C 556.359 541.004 560.309 549.235 566.076 556.132 M 578.018 539.869 C 582.034 547.691 587.302 554.804 593.613 560.927 M 609.732 548.648 C 613.42 555.729 620.503 560.942 628.359 562.36 M 640.438 547.806 C 646.417 552.671 653.369 556.199 660.826 558.153 M 668.48 541.838 C 676.339 547.486 686.564 549.726 696.064 547.876 M 709.134 533.548 C 716.26 535.795 723.833 536.238 731.173 534.837 M 750.447 520.305 C 758.465 520.121 766.39 518.54 773.865 515.631 M 821.728 224.164 C 827.559 224.136 833.371 224.84 839.026 226.261 M 819.609 237.356 C 824.69 238.68 829.278 241.82 832.351 246.078" fill="none" vector-effect="non-scaling-stroke" stroke-width="7.917" stroke="rgb(0,0,0)" stroke-linejoin="round" stroke-linecap="round" stroke-miterlimit="4"/><path d=" M 604.684 410.087 C 604.921 411.138 606.592 411.447 607.188 410.549 C 607.784 409.651 606.851 408.229 605.79 408.42 M 626.266 428.625 C 626.236 429.144 626.657 429.648 627.172 429.711 C 627.687 429.774 628.218 429.388 628.314 428.878 C 628.058 428.389 627.364 428.192 626.89 428.475 C 626.415 428.757 626.256 429.46 626.563 429.919 M 637.424 408.615 C 637.183 409.034 637.558 409.654 638.042 409.634 C 638.525 409.613 638.847 408.964 638.571 408.566 L 637.361 408.694 M 556.41 415.44 C 556.67 415.566 557.016 415.274 556.936 414.997 C 556.531 414.927 556.125 414.859 555.72 414.79 M 544.283 400.722 C 544.782 400.636 545.054 401.508 544.594 401.721 C 544.135 401.934 543.644 401.164 544.031 400.838 C 544.249 400.916 544.468 400.993 544.686 401.072" fill="none" vector-effect="non-scaling-stroke" stroke-width="7.917" stroke="rgb(0,0,0)" stroke-linejoin="round" stroke-linecap="round" stroke-miterlimit="4"/></g><path d=" M 586.814 234.666 C 586.1 215.551 586.976 196.28 590.373 177.436 C 592.563 165.285 595.754 139.65 608.981 133.538 C 634.793 121.608 655.627 191.019 660.662 206.348 M 509.347 415.131 C 505.112 415.112 500.885 415.744 496.81 416.887 M 512.277 390.131 C 505.428 388.212 498.259 387.491 491.163 387.925 M 496.258 357.152 C 504.225 358.58 511.781 362.394 517.52 368.124 M 687.903 431.871 C 696.703 432.624 705.037 436.231 712.347 441.061 M 669.528 405.967 C 684.47 403.216 700.371 406.029 713.462 413.74 M 659.571 385.783 C 674.891 379.347 693.112 383.865 693.112 383.865" fill="none" vector-effect="non-scaling-stroke" stroke-width="7.917" stroke="rgb(0,0,0)" stroke-linejoin="round" stroke-linecap="round" stroke-miterlimit="4"/><g><path d=" M 744.694 318.354 C 744.694 326.756 737.882 333.568 729.48 333.568 C 721.078 333.568 714.266 326.756 714.266 318.354 C 714.266 309.952 721.078 303.14 729.48 303.14 C 737.882 303.14 744.694 309.952 744.694 318.354 Z " fill="rgb(0,0,0)"/><mask id="_mask_gXpsrDEHAxwqDxdTeB537fbLWkYJ6qsb" x="-200%" y="-200%" width="400%" height="400%"><rect x="-200%" y="-200%" width="400%" height="400%" style="fill:white;"/><path d=" M 744.694 318.354 C 744.694 326.756 737.882 333.568 729.48 333.568 C 721.078 333.568 714.266 326.756 714.266 318.354 C 714.266 309.952 721.078 303.14 729.48 303.14 C 737.882 303.14 744.694 309.952 744.694 318.354 Z " fill="black" stroke="none"/></mask><path d=" M 744.694 318.354 C 744.694 326.756 737.882 333.568 729.48 333.568 C 721.078 333.568 714.266 326.756 714.266 318.354 C 714.266 309.952 721.078 303.14 729.48 303.14 C 737.882 303.14 744.694 309.952 744.694 318.354 Z " fill="none" mask="url(#_mask_gXpsrDEHAxwqDxdTeB537fbLWkYJ6qsb)" vector-effect="non-scaling-stroke" stroke-width="15.834" stroke="rgb(0,0,0)" stroke-linejoin="round" stroke-linecap="round" stroke-miterlimit="4"/><path d=" M 744.694 318.354 C 744.694 326.756 737.882 333.568 729.48 333.568 C 721.078 333.568 714.266 326.756 714.266 318.354 C 714.266 309.952 721.078 303.14 729.48 303.14 C 737.882 303.14 744.694 309.952 744.694 318.354 Z " fill="none"/></g><g><path d=" M 610.096 299.756 C 610.096 305.727 605.256 310.567 599.284 310.567 C 593.314 310.567 588.473 305.727 588.473 299.756 C 588.473 293.785 593.314 288.945 599.284 288.945 C 605.256 288.945 610.096 293.785 610.096 299.756 Z " fill="rgb(0,0,0)"/><mask id="_mask_7IhkeZrGBAGiTcPmrZAoATgogAfKoFoM" x="-200%" y="-200%" width="400%" height="400%"><rect x="-200%" y="-200%" width="400%" height="400%" style="fill:white;"/><path d=" M 610.096 299.756 C 610.096 305.727 605.256 310.567 599.284 310.567 C 593.314 310.567 588.473 305.727 588.473 299.756 C 588.473 293.785 593.314 288.945 599.284 288.945 C 605.256 288.945 610.096 293.785 610.096 299.756 Z " fill="black" stroke="none"/></mask><path d=" M 610.096 299.756 C 610.096 305.727 605.256 310.567 599.284 310.567 C 593.314 310.567 588.473 305.727 588.473 299.756 C 588.473 293.785 593.314 288.945 599.284 288.945 C 605.256 288.945 610.096 293.785 610.096 299.756 Z " fill="none" mask="url(#_mask_7IhkeZrGBAGiTcPmrZAoATgogAfKoFoM)" vector-effect="non-scaling-stroke" stroke-width="15.834" stroke="rgb(0,0,0)" stroke-linejoin="round" stroke-linecap="round" stroke-miterlimit="4"/><path d=" M 610.096 299.756 C 610.096 305.727 605.256 310.567 599.284 310.567 C 593.314 310.567 588.473 305.727 588.473 299.756 C 588.473 293.785 593.314 288.945 599.284 288.945 C 605.256 288.945 610.096 293.785 610.096 299.756 Z " fill="none"/></g><path d=" M 715.643 336.489 C 727.134 336.714 738.769 331.898 747.568 324.505 C 747.095 311.902 737.123 300.284 724.739 297.907 C 712.353 295.53 698.789 302.63 693.684 314.162 C 692.281 317.331 691.466 320.835 691.887 324.276 C 692.307 327.716 694.076 331.077 696.99 332.954 M 573.802 288.225 C 578.605 284.494 584.86 282.685 590.913 283.277 C 596.967 283.868 602.754 286.853 606.744 291.443 C 606.744 291.443 610.065 294.875 610.066 300.399 C 610.066 308.375 599.957 313.271 597.315 314.35 C 590.758 317.029 582.856 316.588 576.914 312.661 M 581.405 262.577 C 582.532 257.942 586.605 254.167 591.312 253.394 C 596.018 252.621 601.084 254.897 603.634 258.928 M 703.016 266.285 C 710.975 258.589 723.145 255.55 733.787 258.603 C 744.43 261.656 753.139 270.683 755.808 281.428" fill="none" vector-effect="non-scaling-stroke" stroke-width="7.917" stroke="rgb(0,0,0)" stroke-linejoin="round" stroke-linecap="round" stroke-miterlimit="4"/></g></g><text transform="matrix(1,0,0,1,298,226.082)" style="font-family:'Comic Sans MS';font-weight:400;font-size:40px;font-style:normal;fill:#000000;stroke:none;">Much Code</text><text transform="matrix(1,0,0,1,902,306.082)" style="font-family:'Comic Sans MS';font-weight:400;font-size:40px;font-style:normal;fill:#000000;stroke:none;">Many Commands</text><text transform="matrix(1,0,0,1,335,510.082)" style="font-family:'Comic Sans MS';font-weight:400;font-size:40px;font-style:normal;fill:#000000;stroke:none;">Wow</text></g></svg>